<svg width="498" height="502" viewBox="0 0 498 502" version="1.1" xmlns="http://www.w3.org/2000/svg" xmlns:xlink="http://www.w3.org/1999/xlink">
<title>github</title>
<desc>Created using Figma</desc>
<g id="Canvas" transform="translate(522 357)">
<g id="github">
<g id="Group">
<g id="Vector">
<use xlink:href="#path0_fill" transform="translate(-522 -357)" fill="#20B2AA"/>
</g>
</g>
</g>
</g>
<defs>
<path id="path0_fill" d="M 248.11 501.519C 109.61 501.019 -1.19034 387.519 0.00965586 248.419C 1.10966 111.819 111.41 -1.68115 251.71 0.0188525C 388.81 1.61885 498.61 114.819 497.01 253.719C 495.51 389.719 386.21 501.419 248.11 501.519ZM 212.71 371.219C 211.11 370.919 210.41 370.819 209.61 370.719C 190.51 368.019 172.61 362.319 156.61 350.919C 139.51 338.719 129.01 322.319 124.71 302.219C 120.31 281.719 122.01 261.019 125.21 240.519C 127.41 226.419 132.21 213.119 143.21 203.019C 144.81 201.519 144.71 200.319 143.91 198.319C 137.91 181.719 138.61 165.019 143.61 148.319C 144.61 145.019 146.21 143.619 149.71 144.919C 153.91 146.419 158.21 147.719 162.11 150.019C 172.81 156.319 181.01 165.019 188.21 174.919C 190.01 177.319 191.21 177.719 193.71 176.019C 199.91 171.719 207.21 170.419 214.31 169.119C 231.51 165.919 248.81 166.519 266.11 167.319C 276.21 167.819 286.21 169.619 295.81 173.219C 298.81 174.319 301.51 178.219 304.31 176.719C 307.11 175.319 308.81 171.519 311.01 168.919C 319.81 158.319 329.91 149.519 343.51 145.219C 347.91 143.819 349.91 144.519 351.41 149.219C 356.41 165.519 357.11 181.619 350.81 197.619C 349.81 200.119 350.01 201.919 352.11 203.819C 360.41 211.519 365.21 221.419 367.71 232.319C 372.01 250.919 373.11 269.919 371.91 288.919C 370.71 307.119 364.81 323.719 352.61 337.719C 336.21 356.519 314.81 365.819 290.71 369.919C 287.91 370.419 285.01 370.919 282.01 371.419C 289.11 382.519 292.51 394.019 292.61 406.419C 292.71 420.719 292.61 435.119 292.61 449.419C 292.61 458.719 292.61 468.019 292.61 477.419C 307.81 475.919 336.21 465.819 356.01 455.019C 448.31 404.719 494.91 300.819 471.41 197.919C 443.61 75.5189 322.51 -1.78115 200.11 24.7189C 84.5097 49.8189 4.50965 161.219 21.9097 283.619C 30.0097 340.519 56.1097 388.119 99.3097 426.019C 127.81 451.019 160.81 467.719 197.81 476.319C 200.71 477.019 202.01 476.819 201.91 473.319C 201.71 463.519 201.71 453.619 201.91 443.819C 201.91 440.519 201.31 439.519 197.71 440.219C 191.21 441.519 184.51 442.219 177.81 441.819C 156.61 440.719 139.41 432.319 127.31 414.319C 123.21 408.219 120.91 401.119 117.01 395.019C 110.11 384.319 104.01 373.019 92.5097 366.119C 91.0097 365.219 89.2097 363.819 90.1097 361.719C 90.9097 359.719 93.1097 360.019 94.9097 359.819C 107.71 358.819 118.21 363.619 126.91 372.819C 131.51 377.719 134.41 383.819 138.41 389.119C 151.71 406.819 177.11 414.419 197.91 406.919C 200.91 405.819 201.81 404.319 202.21 401.219C 203.41 390.719 205.41 380.419 212.71 371.219Z"/>
</defs>
</svg>
