<svg width="612" height="612" viewBox="0 0 612 612" version="1.1" xmlns="http://www.w3.org/2000/svg" xmlns:xlink="http://www.w3.org/1999/xlink">
<title>google</title>
<desc>Created using Figma</desc>
<g id="Canvas" transform="translate(666 -213)">
<g id="google">
<g id="Group">
<g id="Group">
<g id="Vector">
<use xlink:href="#path0_fill" transform="translate(-524.739 366)" fill="#20B2AA"/>
</g>
<g id="Vector">
<use xlink:href="#path1_fill" transform="translate(-312.932 460.165)" fill="#20B2AA"/>
</g>
<g id="Vector">
<use xlink:href="#path2_fill" transform="translate(-666 213)" fill="#20B2AA"/>
</g>
</g>
</g>
</g>
</g>
<defs>
<path id="path0_fill" d="M 207.885 249.251C 207.885 219.235 190.498 204.436 171.36 188.329L 155.698 176.144C 150.913 172.249 144.404 167.02 144.404 157.451C 144.404 147.881 150.941 141.789 156.588 136.142C 174.837 121.788 193.114 106.571 193.114 74.386C 193.114 41.31 172.222 23.924 162.236 15.662L 189.192 15.662L 217.01 0L 127.407 0C 103.928 0 74.358 3.478 49.544 23.924C 30.851 40.003 21.726 62.202 21.726 82.203C 21.726 116.114 47.819 150.497 93.914 150.497C 98.282 150.497 103.039 150.052 107.851 149.634C 105.681 154.864 103.511 159.203 103.511 166.604C 103.511 180.068 110.466 188.357 116.558 196.174C 97.002 197.482 60.449 199.652 33.493 216.175C 7.817 231.392 1.58691e-06 253.591 1.58691e-06 269.252C 1.58691e-06 301.438 30.461 331.453 93.525 331.453C 168.3 331.454 207.885 290.116 207.885 249.251ZM 114.36 138.34C 76.945 138.34 59.976 90.048 59.976 60.922C 59.976 49.6 62.146 37.888 69.545 28.736C 76.5 20.029 88.684 14.354 100.006 14.354C 136.114 14.354 154.808 63.092 154.808 94.387C 154.808 102.232 153.946 116.141 143.931 126.155C 136.976 133.11 125.237 138.312 114.36 138.34ZM 114.805 313.177C 68.265 313.177 38.249 291.006 38.249 260.128C 38.249 229.25 66.095 218.817 75.665 215.341C 93.941 209.248 117.42 208.359 121.342 208.359C 125.682 208.359 127.852 208.359 131.329 208.804C 164.405 232.283 178.731 244.022 178.731 266.22C 178.731 293.176 156.56 313.177 114.805 313.177Z"/>
<path id="path1_fill" d="M -6.83594e-06 70.603L 47.096 70.603L 47.096 117.671L 70.631 117.671L 70.631 70.603L 117.7 70.603L 117.7 47.068L 70.631 47.068L 70.631 -6.71387e-06L 47.096 -6.71387e-06L 47.096 47.068L -6.83594e-06 47.068L -6.83594e-06 70.603Z"/>
<path id="path2_fill" d="M 612 306C 612 137.004 474.995 0 306 0C 137.004 0 0 137.004 0 306C 0 474.995 137.004 612 306 612C 474.995 612 612 474.995 612 306ZM 27.818 306C 27.818 152.36 152.36 27.818 306 27.818C 459.64 27.818 584.182 152.36 584.182 306C 584.182 459.64 459.64 584.182 306 584.182C 152.36 584.182 27.818 459.64 27.818 306Z"/>
</defs>
</svg>
