<svg width="1884" height="1884" viewBox="0 0 1884 1884" version="1.1" xmlns="http://www.w3.org/2000/svg" xmlns:xlink="http://www.w3.org/1999/xlink">
<title>LinkedIn</title>
<desc>Created using Figma</desc>
<g id="Canvas" transform="matrix(3 0 0 3 -1911 -957)">
<g id="LinkedIn">
<g id="Layer 2">
<g id="Icons">
<g id="Vector">
<use xlink:href="#path0_fill" transform="translate(645 327)" fill="#20B2AA"/>
<mask id="mask0_outline_out">
<rect id="mask0_outline_inv" fill="white" x="-8" y="-8" width="628" height="628" transform="translate(645 327)"/>
<use xlink:href="#path0_fill" fill="black" transform="translate(645 327)"/>
</mask>
<g mask="url(#mask0_outline_out)">
<use xlink:href="#path1_stroke_2x" transform="translate(645 327)" fill="#20B2AA"/>
</g>
</g>
<g id="Vector">
<use xlink:href="#path2_fill" transform="translate(816.659 497.224)" fill="#20B2AA"/>
<mask id="mask1_outline_out">
<rect id="mask1_outline_inv" fill="white" x="-8" y="-8" width="285" height="264" transform="translate(816.659 497.224)"/>
<use xlink:href="#path2_fill" fill="black" transform="translate(816.659 497.224)"/>
</mask>
<g mask="url(#mask1_outline_out)">
<use xlink:href="#path3_stroke_2x" transform="translate(816.659 497.224)" fill="#20B2AA"/>
</g>
</g>
</g>
</g>
</g>
</g>
<defs>
<path id="path0_fill" d="M 306 612C 245.479 612 186.317 594.053 135.996 560.43C 85.6742 526.806 46.4534 479.015 23.293 423.101C 0.132584 367.187 -5.92723 305.661 5.87984 246.302C 17.6869 186.944 46.8306 132.42 89.6254 89.6254C 132.42 46.8306 186.944 17.6869 246.302 5.87984C 305.661 -5.92723 367.187 0.132584 423.101 23.293C 479.015 46.4534 526.806 85.6742 560.43 135.996C 594.053 186.317 612 245.479 612 306C 612 387.156 579.761 464.989 522.375 522.375C 464.989 579.761 387.156 612 306 612ZM 306 14.927C 248.431 14.927 192.155 31.9981 144.289 63.9816C 96.4218 95.9652 59.1142 141.425 37.0836 194.611C 15.0529 247.798 9.28873 306.323 20.5199 362.786C 31.751 419.248 59.473 471.113 100.18 511.82C 140.888 552.527 192.752 580.249 249.215 591.48C 305.677 602.711 364.202 596.947 417.389 574.917C 470.576 552.886 516.035 515.578 548.019 467.712C 580.002 419.845 597.073 363.569 597.073 306C 597.073 228.803 566.407 154.767 511.82 100.18C 457.233 45.5935 383.197 14.927 306 14.927L 306 14.927Z"/>
<path id="path1_stroke_2x" d="M 246.302 5.87984L 244.742 -1.96644L 246.302 5.87984ZM 612 306L 620 306L 612 306ZM 249.215 591.48L 247.654 599.327L 249.215 591.48ZM 597.073 306L 589.073 306L 597.073 306ZM 306 604C 246.653 604.087 189.737 586.822 140.44 553.778L 131.551 567.081C 182.897 601.285 244.305 619.913 306 620L 306 604ZM 140.44 553.778C 91.0467 520.878 53.3152 474.903 30.684 420.04L 15.902 426.163C 39.5916 483.128 80.3017 532.734 131.551 567.081L 140.44 553.778ZM 30.684 420.04C 7.89283 365.243 2.06313 306.053 13.7261 247.863L -1.96644 244.742C -13.9176 305.268 -7.62767 369.131 15.902 426.163L 30.684 420.04ZM 13.7261 247.863C 25.2193 189.639 53.2562 137.186 95.2823 95.2823L 83.9686 83.9686C 40.4049 127.655 10.1546 184.249 -1.96644 244.742L 13.7261 247.863ZM 95.2823 95.2823C 137.186 53.2562 189.639 25.2193 247.863 13.7261L 244.742 -1.96644C 184.249 10.1546 127.655 40.4049 83.9686 83.9686L 95.2823 95.2823ZM 247.863 13.7261C 306.053 2.06313 365.243 7.89283 420.04 30.684L 426.163 15.902C 369.131 -7.62767 305.268 -13.9176 244.742 -1.96644L 247.863 13.7261ZM 420.04 30.684C 474.903 53.3152 520.878 91.0467 553.778 140.44L 567.081 131.551C 532.734 80.3017 483.128 39.5916 426.163 15.902L 420.04 30.684ZM 553.778 140.44C 586.822 189.737 604.087 246.653 604 306L 620 306C 619.913 244.305 601.285 182.897 567.081 131.551L 553.778 140.44ZM 604 306C 604 385.035 572.604 460.832 516.718 516.718L 528.032 528.032C 586.918 469.145 620 389.278 620 306L 604 306ZM 516.718 516.718C 460.832 572.604 385.035 604 306 604L 306 620C 389.278 620 469.145 586.918 528.032 528.032L 516.718 516.718ZM 306 6.92696C 247.257 7.01355 188.735 24.7662 139.844 57.3299L 148.733 70.6334C 195.576 39.23 249.605 22.8404 306 22.927L 306 6.92696ZM 139.844 57.3299C 91.0493 90.0375 52.2524 137.312 29.6925 191.55L 44.4746 197.673C 65.976 145.537 101.794 101.893 148.733 70.6334L 139.844 57.3299ZM 29.6925 191.55C 7.2927 245.854 1.29837 306.716 12.6736 364.346L 28.3661 361.225C 17.2791 305.93 22.8132 249.742 44.4746 197.673L 29.6925 191.55ZM 12.6736 364.346C 24.2186 421.943 53.0473 475.878 94.5234 517.477L 105.837 506.163C 65.8987 466.347 39.2833 416.553 28.3661 361.225L 12.6736 364.346ZM 94.5234 517.477C 136.122 558.953 190.057 587.782 247.654 599.327L 250.775 583.634C 195.447 572.717 145.653 546.101 105.837 506.163L 94.5234 517.477ZM 247.654 599.327C 305.285 610.702 366.146 604.707 420.45 582.308L 414.327 567.526C 362.258 589.187 306.07 594.721 250.775 583.634L 247.654 599.327ZM 420.45 582.308C 474.688 559.748 521.963 520.951 554.67 472.156L 541.367 463.267C 510.107 510.206 466.463 546.024 414.327 567.526L 420.45 582.308ZM 554.67 472.156C 587.234 423.265 604.987 364.743 605.073 306L 589.073 306C 589.16 362.395 572.77 416.424 541.367 463.267L 554.67 472.156ZM 605.073 306C 605.073 226.681 573.564 150.611 517.477 94.5234L 506.163 105.837C 559.249 158.924 589.073 230.924 589.073 306L 605.073 306ZM 517.477 94.5234C 461.39 38.4364 385.319 6.92696 306 6.92696L 306 22.927C 381.076 22.927 453.076 52.7507 506.163 105.837L 517.477 94.5234Z"/>
<path id="path2_fill" d="M 59.185 247.056L 6.94109 247.056L 6.94109 79.2784L 59.185 79.2784L 59.185 247.056ZM 31.645 58.3063L 31.2718 58.3063C 27.2713 58.6046 23.2524 58.0727 19.4672 56.7441C 15.682 55.4155 12.2123 53.3188 9.27587 50.5856C 6.33945 47.8524 3.99969 44.5418 2.40346 40.8614C 0.807236 37.1811 -0.0109955 33.2105 0.00011158 29.1989C 0.00011158 12.6302 12.6133 0.0916322 32.0182 0.0916322C 36.0377 -0.227245 40.0797 0.288185 43.8906 1.60557C 47.7015 2.92296 51.1989 5.01387 54.1634 7.74705C 57.1278 10.4802 59.4953 13.7967 61.1172 17.4883C 62.7391 21.1798 63.5805 25.1668 63.5884 29.1989C 63.5884 45.4692 51.2738 58.3063 31.645 58.3063ZM 268.683 247.056L 208.976 247.056L 208.976 160.256C 208.976 137.866 199.721 122.044 179.122 122.044C 172.836 122.043 166.71 124.027 161.617 127.713C 156.525 131.398 152.726 136.597 150.761 142.568C 149.513 147.006 149.083 151.634 149.492 156.226L 149.492 247.056L 91.1284 247.056C 91.1284 247.056 91.8747 93.3097 91.1284 79.3531L 149.94 79.3531L 149.94 105.923C 153.448 94.4292 172.33 78.0097 202.184 78.0097C 239.501 78.0097 268.683 102.116 268.683 154.062L 268.683 247.056Z"/>
<path id="path3_stroke_2x" d="M 59.185 247.056L 59.185 255.056L 67.185 255.056L 67.185 247.056L 59.185 247.056ZM 6.94109 247.056L -1.05891 247.056L -1.05891 255.056L 6.94109 255.056L 6.94109 247.056ZM 6.94109 79.2784L 6.94109 71.2784L -1.05891 71.2784L -1.05891 79.2784L 6.94109 79.2784ZM 59.185 79.2784L 67.185 79.2784L 67.185 71.2784L 59.185 71.2784L 59.185 79.2784ZM 31.2718 58.3063L 31.2718 50.3063L 30.974 50.3063L 30.6769 50.3284L 31.2718 58.3063ZM 0.00011158 29.1989L 8.00008 29.2211L 8.00011 29.21L 8.00011 29.1989L 0.00011158 29.1989ZM 32.0182 0.0916322L 32.0182 8.09163L 32.335 8.09163L 32.6508 8.06658L 32.0182 0.0916322ZM 61.1172 17.4883L 53.7929 20.7062L 61.1172 17.4883ZM 63.5884 29.1989L 71.5884 29.1989L 71.5884 29.1911L 71.5884 29.1832L 63.5884 29.1989ZM 268.683 247.056L 268.683 255.056L 276.683 255.056L 276.683 247.056L 268.683 247.056ZM 208.976 247.056L 200.976 247.056L 200.976 255.056L 208.976 255.056L 208.976 247.056ZM 179.122 122.044L 179.121 130.044L 179.122 130.044L 179.122 122.044ZM 150.761 142.568L 143.162 140.068L 143.107 140.234L 143.06 140.402L 150.761 142.568ZM 149.492 156.226L 157.492 156.226L 157.492 155.87L 157.461 155.516L 149.492 156.226ZM 149.492 247.056L 149.492 255.056L 157.492 255.056L 157.492 247.056L 149.492 247.056ZM 91.1284 247.056L 83.1285 247.017L 83.0895 255.056L 91.1284 255.056L 91.1284 247.056ZM 91.1284 79.3531L 91.1284 71.3531L 82.6891 71.3531L 83.1398 79.7803L 91.1284 79.3531ZM 149.94 79.3531L 157.94 79.3531L 157.94 71.3531L 149.94 71.3531L 149.94 79.3531ZM 149.94 105.923L 141.94 105.923L 157.592 108.258L 149.94 105.923ZM 59.185 239.056L 6.94109 239.056L 6.94109 255.056L 59.185 255.056L 59.185 239.056ZM 14.9411 247.056L 14.9411 79.2784L -1.05891 79.2784L -1.05891 247.056L 14.9411 247.056ZM 6.94109 87.2784L 59.185 87.2784L 59.185 71.2784L 6.94109 71.2784L 6.94109 87.2784ZM 51.185 79.2784L 51.185 247.056L 67.185 247.056L 67.185 79.2784L 51.185 79.2784ZM 31.645 50.3063L 31.2718 50.3063L 31.2718 66.3063L 31.645 66.3063L 31.645 50.3063ZM 30.6769 50.3284C 27.4998 50.6078 25.1117 50.2918 22.1167 49.1956L 16.8176 64.2926C 21.393 65.8536 27.0428 66.6013 31.8667 66.2841L 30.6769 50.3284ZM 22.1167 49.1956C 19.0936 48.1794 17.0319 46.9336 14.7264 44.7298L 3.82529 56.4415C 7.39269 59.7041 12.2704 62.6516 16.8176 64.2926L 22.1167 49.1956ZM 14.7264 44.7298C 12.3632 42.588 10.9729 40.6208 9.74288 37.6782L -4.93596 44.0447C -2.97354 48.4628 0.315671 53.1169 3.82529 56.4415L 14.7264 44.7298ZM 9.74288 37.6782C 8.43505 34.7694 7.94885 32.41 8.00008 29.2211L -7.99986 29.1768C -7.97084 34.011 -6.82058 39.5928 -4.93596 44.0447L 9.74288 37.6782ZM 8.00011 29.1989C 8.00011 17.5611 16.5009 8.09163 32.0182 8.09163L 32.0182 -7.90837C 8.72569 -7.90837 -7.99989 7.69925 -7.99989 29.1989L 8.00011 29.1989ZM 32.6508 8.06658C 35.847 7.77048 38.2572 8.07782 41.2768 9.16654L 46.5044 -5.95539C 41.9022 -7.50145 36.2283 -8.22497 31.3855 -7.88331L 32.6508 8.06658ZM 41.2768 9.16654C 44.3242 10.1751 46.4096 11.4219 48.7406 13.6287L 59.5861 1.86543C 55.9882 -1.39414 51.0788 -4.32919 46.5044 -5.95539L 41.2768 9.16654ZM 48.7406 13.6287C 51.129 15.7731 52.5407 17.7507 53.7929 20.7062L 68.4415 14.2703C 66.4499 9.84273 63.1266 5.18734 59.5861 1.86543L 48.7406 13.6287ZM 53.7929 20.7062C 55.1228 23.6277 55.6245 26.005 55.5884 29.2147L 71.5884 29.1832C 71.5364 24.3286 70.3554 18.732 68.4415 14.2703L 53.7929 20.7062ZM 55.5884 29.1989C 55.5884 40.6516 47.2656 50.3063 31.645 50.3063L 31.645 66.3063C 55.2819 66.3063 71.5884 50.2868 71.5884 29.1989L 55.5884 29.1989ZM 268.683 239.056L 208.976 239.056L 208.976 255.056L 268.683 255.056L 268.683 239.056ZM 216.976 247.056L 216.976 160.256L 200.976 160.256L 200.976 247.056L 216.976 247.056ZM 216.976 160.256C 216.976 148.137 214.498 136.69 208.254 128.063C 201.73 119.05 191.756 114.044 179.122 114.044L 179.122 130.044C 187.087 130.044 192.039 132.949 195.293 137.444C 198.826 142.326 200.976 149.986 200.976 160.256L 216.976 160.256ZM 179.123 114.044C 171.589 114.141 163.088 116.894 156.927 121.232L 166.307 134.193C 170.332 131.16 174.083 129.945 179.121 130.044L 179.123 114.044ZM 156.927 121.232C 150.881 125.728 145.609 132.942 143.162 140.068L 158.36 145.068C 159.842 140.252 162.168 137.068 166.307 134.193L 156.927 121.232ZM 143.06 140.402C 141.647 145.547 141.083 151.619 141.524 156.937L 157.461 155.516C 157.083 151.649 157.379 148.465 158.462 144.734L 143.06 140.402ZM 141.492 156.226L 141.492 247.056L 157.492 247.056L 157.492 156.226L 141.492 156.226ZM 149.492 239.056L 91.1284 239.056L 91.1284 255.056L 149.492 255.056L 149.492 239.056ZM 91.1284 247.056C 99.1283 247.095 99.1283 247.094 99.1283 247.093C 99.1283 247.092 99.1283 247.09 99.1283 247.088C 99.1283 247.083 99.1284 247.076 99.1284 247.067C 99.1285 247.048 99.1286 247.02 99.1288 246.983C 99.1292 246.909 99.1297 246.798 99.1304 246.653C 99.1318 246.361 99.1338 245.928 99.1365 245.363C 99.1418 244.234 99.1494 242.574 99.1589 240.458C 99.1779 236.226 99.2041 230.164 99.2333 222.847C 99.2916 208.213 99.3616 188.552 99.4082 168.457C 99.5015 128.266 99.4987 86.1177 99.117 78.9259L 83.1398 79.7803C 83.5044 86.545 83.5016 128.248 83.4083 168.42C 83.3616 188.505 83.2917 208.153 83.2334 222.783C 83.2042 230.098 83.178 236.156 83.1591 240.387C 83.1496 242.502 83.142 244.159 83.1367 245.288C 83.134 245.853 83.132 246.285 83.1306 246.576C 83.1299 246.722 83.1294 246.832 83.129 246.906C 83.1288 246.943 83.1287 246.971 83.1286 246.989C 83.1286 246.999 83.1285 247.006 83.1285 247.01C 83.1285 247.013 83.1285 247.014 83.1285 247.015C 83.1285 247.017 83.1285 247.017 91.1284 247.056ZM 91.1284 87.3531L 149.94 87.3531L 149.94 71.3531L 91.1284 71.3531L 91.1284 87.3531ZM 141.94 79.3531L 141.94 105.923L 157.94 105.923L 157.94 79.3531L 141.94 79.3531ZM 157.592 108.258C 158.602 104.947 162.556 99.3432 170.414 94.4453C 178.489 89.3486 188.551 85.9043 202.184 86.0097L 202.184 70.0097C 185.963 70.115 171.657 74.8805 161.951 80.8669C 152.027 87.0522 144.786 95.4055 142.288 103.588L 157.592 108.258ZM 202.184 86.0097C 219.103 86.0097 233.474 91.4382 243.643 102.082C 253.828 112.744 260.683 129.572 260.683 154.062L 276.683 154.062C 276.683 126.606 268.947 105.408 255.212 91.0302C 241.46 76.6346 222.582 70.0097 202.184 70.0097L 202.184 86.0097ZM 260.683 154.062L 260.683 247.056L 276.683 247.056L 276.683 154.062L 260.683 154.062Z"/>
</defs>
</svg>
