<svg width="612" height="612" viewBox="0 0 612 612" version="1.1" xmlns="http://www.w3.org/2000/svg" xmlns:xlink="http://www.w3.org/1999/xlink">
<title>twitter</title>
<desc>Created using Figma</desc>
<g id="Canvas" transform="translate(-8 -327)">
<g id="twitter">
<g id="Group">
<g id="Group">
<g id="Vector">
<use xlink:href="#path0_fill" transform="translate(149.259 491.758)" fill="#20B2AA"/>
</g>
<g id="Vector">
<use xlink:href="#path1_fill" transform="translate(8 327)" fill="#20B2AA"/>
</g>
</g>
</g>
</g>
</g>
<defs>
<path id="path0_fill" d="M 295.96 80.4038C 295.96 77.3158 295.904 74.2557 295.765 71.2237C 308.979 61.3757 320.44 49.0528 329.509 34.9488C 317.38 40.4018 304.361 44.0457 290.674 45.5747C 304.639 36.9787 315.349 23.2367 320.412 6.74075C 307.337 14.6687 292.872 20.3438 277.488 23.2928C 265.165 9.27175 247.584 0.342754 228.138 0.00875448C 190.806 -0.603246 160.54 30.9427 160.54 70.4717C 160.54 76.0907 161.124 81.5438 162.292 86.8008C 106.072 83.1848 56.25 53.9198 22.923 9.80076C 17.109 20.3718 13.771 32.7228 13.771 45.9648C 13.771 71.0018 25.705 93.2558 43.842 106.386C 32.743 105.886 22.339 102.52 13.215 97.0108C 13.215 97.3168 13.215 97.6228 13.215 97.9288C 13.215 132.925 36.527 162.245 67.46 169.088C 61.785 170.701 55.804 171.536 49.656 171.509C 45.289 171.481 41.06 171.008 36.943 170.117C 45.539 198.798 70.52 219.745 100.09 220.44C 76.945 239.634 47.792 251.095 16.135 251.012C 10.682 251.012 5.286 250.651 2.68555e-06 249.983C 29.933 270.513 65.456 282.474 103.65 282.474C 227.971 282.503 295.96 174.29 295.96 80.4038Z"/>
<path id="path1_fill" d="M 612 306C 612 137.004 474.995 0 306 0C 137.004 0 0 137.004 0 306C 0 474.995 137.004 612 306 612C 474.995 612 612 474.995 612 306ZM 27.818 306C 27.818 152.36 152.36 27.818 306 27.818C 459.64 27.818 584.182 152.36 584.182 306C 584.182 459.64 459.64 584.182 306 584.182C 152.36 584.182 27.818 459.64 27.818 306Z"/>
</defs>
</svg>
